HIERARCHY
ROOT Hips
{
	OFFSET 0.000000 0.000000 0.000000
	CHANNELS 6 Xposition Yposition Zposition Xrotation Yrotation Zrotation
	JOINT LeftUpLeg_virtual
	{
		OFFSET 0.000000 0.000000 0.000000
		CHANNELS 3 Xrotation Yrotation Zrotation
		JOINT LeftUpLeg
		{
			OFFSET 15.427100 -6.655098 0.678600
			CHANNELS 3 Xrotation Yrotation Zrotation
			JOINT LeftLeg
			{
				OFFSET 4.081073 -39.591068 13.024000
				CHANNELS 3 Xrotation Yrotation Zrotation
				JOINT LeftFoot
				{
					OFFSET -4.081074 -37.707932 -15.979700
					CHANNELS 3 Xrotation Yrotation Zrotation
					JOINT LeftToeBase
					{
						OFFSET 5.346399 -15.068900 20.645000
						CHANNELS 3 Xrotation Yrotation Zrotation
						JOINT LeftToe_End
						{
							OFFSET 2.754700 0.931300 11.300900
							CHANNELS 3 Xrotation Yrotation Zrotation
							End Site
							{
								OFFSET 0 0 0
							}
						}
					}
				}
			}
		}
	}
	JOINT RightUpLeg_virtual
	{
		OFFSET 0.000000 0.000000 0.000000
		CHANNELS 3 Xrotation Yrotation Zrotation
		JOINT RightUpLeg
		{
			OFFSET -15.569500 -6.655098 0.678600
			CHANNELS 3 Xrotation Yrotation Zrotation
			JOINT RightLeg
			{
				OFFSET -4.081825 -39.591045 13.023800
				CHANNELS 3 Xrotation Yrotation Zrotation
				JOINT RightFoot
				{
					OFFSET 4.081824 -37.707954 -15.979600
					CHANNELS 3 Xrotation Yrotation Zrotation
					JOINT RightToeBase
					{
						OFFSET -5.346400 -15.068900 20.645000
						CHANNELS 3 Xrotation Yrotation Zrotation
						JOINT RightToe_End
						{
							OFFSET -2.754700 0.931300 11.300900
							CHANNELS 3 Xrotation Yrotation Zrotation
							End Site
							{
								OFFSET 0 0 0
							}
						}
					}
				}
			}
		}
	}
	JOINT Spine_virtual
	{
		OFFSET 0.000000 0.000000 0.000000
		CHANNELS 3 Xrotation Yrotation Zrotation
		JOINT Spine
		{
			OFFSET -0.279200 12.230698 -2.892100
			CHANNELS 3 Xrotation Yrotation Zrotation
			JOINT Spine1
			{
				OFFSET -0.232667 10.192268 -1.242267
				CHANNELS 3 Xrotation Yrotation Zrotation
				JOINT Spine1_split
				{
					OFFSET -0.232667 10.192268 -1.242267
					CHANNELS 3 Xrotation Yrotation Zrotation
					JOINT Spine2
					{
						OFFSET -0.232667 10.192268 -1.242267
						CHANNELS 3 Xrotation Yrotation Zrotation
						JOINT Neck_virtual
						{
							OFFSET 0.000000 0.000000 0.000000
							CHANNELS 3 Xrotation Yrotation Zrotation
							JOINT Neck
							{
								OFFSET -0.418800 17.814194 8.416900
								CHANNELS 3 Xrotation Yrotation Zrotation
								JOINT Head
								{
									OFFSET 0.000000 7.031097 3.806800
									CHANNELS 3 Xrotation Yrotation Zrotation
									JOINT HeadTop_End
									{
										OFFSET 0.000000 24.646606 12.978600
										CHANNELS 3 Xrotation Yrotation Zrotation
										End Site
										{
											OFFSET 0 0 0
										}
									}
								}
							}
						}
						JOINT LeftShoulder_virtual
						{
							OFFSET 0.000000 0.000000 0.000000
							CHANNELS 3 Xrotation Yrotation Zrotation
							JOINT LeftShoulder
							{
								OFFSET 8.476499 7.247704 -3.868750
								CHANNELS 3 Xrotation Yrotation Zrotation
								JOINT LeftShoulder_split
								{
									OFFSET 8.476499 7.247704 -3.868750
									CHANNELS 3 Xrotation Yrotation Zrotation
									JOINT LeftArm
									{
										OFFSET 9.308998 -2.777710 0.208600
										CHANNELS 3 Xrotation Yrotation Zrotation
										JOINT LeftForeArm
										{
											OFFSET 29.972298 0.000000 0.000000
											CHANNELS 3 Xrotation Yrotation Zrotation
											JOINT LeftHand
											{
												OFFSET 26.026505 0.000000 0.000000
												CHANNELS 3 Xrotation Yrotation Zrotation
												End Site
												{
													OFFSET 0 0 0
												}
											}
										}
									}
								}
							}
						}
						JOINT RightShoulder_virtual
						{
							OFFSET 0.000000 0.000000 0.000000
							CHANNELS 3 Xrotation Yrotation Zrotation
							JOINT RightShoulder
							{
								OFFSET -7.570500 7.247704 -3.868750
								CHANNELS 3 Xrotation Yrotation Zrotation
								JOINT RightShoulder_split
								{
									OFFSET -7.570500 7.247704 -3.868750
									CHANNELS 3 Xrotation Yrotation Zrotation
									JOINT RightArm
									{
										OFFSET -9.308998 -2.777710 0.208500
										CHANNELS 3 Xrotation Yrotation Zrotation
										JOINT RightForeArm
										{
											OFFSET -29.972300 0.000000 0.000000
											CHANNELS 3 Xrotation Yrotation Zrotation
											JOINT RightHand
											{
												OFFSET -26.026505 0.000000 0.000000
												CHANNELS 3 Xrotation Yrotation Zrotation
												End Site
												{
													OFFSET 0 0 0
												}
											}
										}
									}
								}
							}
						}
					}
				}
			}
		}
	}
}
MOTION
Frames: 9
Frame Time: 0.03333333
10.847081 77.027367 0.945522 0.000000 0.000000 0.000000 9.301260 -1.198335 -10.594451 -48.723475 -9.836347 32.892251 46.576802 -3.368047 -6.377418 -2.118445 2.250178 -15.764136 -0.567609 -0.082721 0.592020 0.000000 0.000000 0.000000 10.022614 -1.631546 -11.255632 -31.771718 -23.808436 4.103275 45.281221 9.628397 4.781076 -22.927668 -16.609606 -9.821835 3.209243 0.350412 -1.093860 0.000000 0.000000 0.000000 8.477160 0.135431 -11.650791 7.815254 -3.352298 -7.041608 5.382689 -1.760011 -6.268054 1.313524 0.904836 0.597598 0.000000 0.000000 0.000000 7.740545 -1.780283 -6.364109 -6.851882 0.342065 -6.795788 -29.630686 -12.586808 13.148089 0.000000 0.000000 0.000000 6.738389 -1.520670 -6.072636 0.906270 -5.062075 -7.625107 -0.842560 -4.081146 0.383904 -27.240845 7.849774 -19.371666 2.570594 -59.206518 2.364616 0.000000 0.000000 0.000000 6.498735 -1.886421 -6.074813 1.868908 -1.933025 4.205097 6.365774 4.023920 -3.071665 24.811432 -8.596820 81.199802 8.785940 80.423647 -7.779770 0.000000 0.000000 0.000000 
11.056318 75.906944 -0.072666 0.000000 0.000000 0.000000 8.896340 -2.548307 -9.879434 -49.439050 -10.535527 32.636112 48.127736 -2.536604 -6.450213 -1.989408 2.696409 -15.917496 0.046659 -0.024283 0.671589 0.000000 0.000000 0.000000 9.518766 -2.680566 -10.561804 -33.746715 -22.311755 4.319424 47.400000 8.848619 4.530730 -23.307076 -17.048589 -10.157203 2.943984 0.342421 -1.130816 0.000000 0.000000 0.000000 8.051494 -1.074626 -11.095497 8.684947 -2.947643 -6.558807 5.932609 -1.496370 -5.970211 1.379133 0.907926 0.641862 0.000000 0.000000 0.000000 8.032174 -1.548845 -6.085232 -5.898148 0.220548 -6.629832 -28.569650 -11.986907 12.828777 0.000000 0.000000 0.000000 7.142815 -1.351487 -5.959376 0.951364 -5.329016 -8.551112 -0.663598 -4.051687 0.583464 -24.351475 12.150086 -22.857242 2.117016 -56.811055 2.024677 0.000000 0.000000 0.000000 7.075338 -1.606755 -5.772006 1.867353 -0.791591 5.017749 6.000447 3.668336 -3.082244 21.816775 -5.519291 79.583889 6.280809 76.451933 -5.385499 0.000000 0.000000 0.000000 
11.138514 75.161438 -0.919106 0.000000 0.000000 0.000000 8.498483 -3.688866 -9.290049 -49.725133 -11.015528 32.442726 49.018704 -1.516535 -6.526903 -1.982704 3.157789 -15.875532 0.570084 0.037696 0.592892 0.000000 0.000000 0.000000 8.952339 -3.653999 -9.954879 -35.329396 -20.930020 4.543511 48.900388 8.045591 4.341001 -23.326583 -17.335196 -10.171323 3.026248 0.358768 -1.183578 0.000000 0.000000 0.000000 7.585380 -2.373777 -10.585910 9.370463 -2.627797 -6.196022 6.332120 -1.282702 -5.712025 1.412103 0.965179 0.502185 0.000000 0.000000 0.000000 8.181300 -1.367784 -5.821502 -5.107334 0.217652 -6.509262 -26.976570 -11.299887 12.664117 0.000000 0.000000 0.000000 7.382583 -1.210397 -5.867595 0.988238 -5.544526 -9.426639 -0.724777 -3.684550 0.821048 -21.431757 15.178164 -26.791364 1.563567 -53.433103 1.596619 0.000000 0.000000 0.000000 7.524857 -1.369267 -5.521047 1.799175 0.257776 5.829939 5.603737 3.422075 -2.999542 18.807576 -2.633595 77.753562 4.911716 72.733885 -4.159257 0.000000 0.000000 0.000000 
11.083374 74.815590 -1.570992 0.000000 0.000000 0.000000 8.025665 -4.637519 -8.833975 -49.588516 -11.345433 32.363759 49.355630 -0.518866 -6.570465 -1.957115 3.453997 -15.721540 0.924071 0.085043 0.406144 0.000000 0.000000 0.000000 8.399188 -4.544594 -9.481331 -36.410502 -19.651148 4.878287 49.623339 7.287826 4.132638 -22.823805 -17.461286 -9.750926 3.096385 0.395703 -1.266634 0.000000 0.000000 0.000000 7.068875 -3.756036 -10.130546 9.784896 -2.375699 -5.954519 6.529245 -1.125902 -5.509180 1.346495 1.117919 0.289595 0.000000 0.000000 0.000000 8.130455 -1.228214 -5.608150 -4.455964 0.261600 -6.418038 -24.874115 -10.660135 12.692442 0.000000 0.000000 0.000000 7.423582 -1.100609 -5.802137 1.012521 -5.629253 -10.241829 -0.908480 -3.243025 1.006506 -18.630442 16.832936 -30.788591 1.075518 -49.610000 1.214522 0.000000 0.000000 0.000000 7.777948 -1.170104 -5.349167 1.676827 1.155087 6.664720 5.378969 3.360125 -2.837894 15.830751 0.022934 75.941451 4.041472 69.313409 -3.435897 0.000000 0.000000 0.000000 
10.914241 74.863838 -2.074543 0.000000 0.000000 0.000000 7.403021 -5.479025 -8.532341 -48.925577 -11.537608 32.430882 49.235723 0.314595 -6.571792 -1.814112 3.508371 -15.332424 1.119472 0.101083 0.224087 0.000000 0.000000 0.000000 7.834685 -5.447719 -9.118686 -36.816185 -18.430714 5.446843 49.415247 6.562901 3.892313 -21.849085 -17.464406 -9.152639 3.071261 0.427563 -1.353130 0.000000 0.000000 0.000000 6.492943 -5.234552 -9.748252 9.867787 -2.160969 -5.811601 6.519395 -1.025331 -5.368494 1.298184 1.443612 0.098047 0.000000 0.000000 0.000000 7.852160 -1.120958 -5.460586 -3.848561 0.286327 -6.310165 -22.172288 -10.147912 12.917712 0.000000 0.000000 0.000000 7.278921 -1.019193 -5.761893 1.025143 -5.569255 -11.032966 -1.339626 -2.823030 1.005392 -16.079114 17.209182 -34.465305 0.792743 -45.977787 0.974690 0.000000 0.000000 0.000000 7.783200 -1.008801 -5.267991 1.544370 1.872066 7.504470 5.303866 3.414642 -2.705133 12.997427 2.515522 74.300553 3.436659 66.294718 -2.942300 0.000000 0.000000 0.000000 
10.619602 75.293640 -2.377514 0.000000 0.000000 0.000000 6.605997 -6.164778 -8.355965 -47.630317 -11.505130 32.656890 48.639597 1.001201 -6.545602 -1.577553 3.415545 -14.653701 1.268762 0.098039 0.121090 0.000000 0.000000 0.000000 7.175652 -6.298859 -8.871220 -36.489357 -17.309197 6.242867 48.305031 5.808502 3.629989 -20.567819 -17.372043 -8.628037 3.100837 0.429374 -1.419979 0.000000 0.000000 0.000000 5.761457 -6.700760 -9.435623 9.629169 -1.978699 -5.727680 6.307395 -0.991382 -5.288592 1.190491 1.775303 -0.004638 0.000000 0.000000 0.000000 7.360154 -1.054563 -5.379934 -3.198345 0.259589 -6.141267 -18.781750 -9.756892 13.343695 0.000000 0.000000 0.000000 6.961138 -0.986181 -5.739693 1.024716 -5.375251 -11.787739 -1.926383 -2.507257 0.792636 -14.018331 16.481818 -37.526951 0.779734 -42.973525 0.913361 0.000000 0.000000 0.000000 7.537947 -0.900342 -5.272117 1.422060 2.370281 8.323271 5.278115 3.405252 -2.584256 10.508573 4.797059 72.812569 2.979077 63.998995 -2.560021 0.000000 0.000000 0.000000 
10.261773 76.049660 -2.608265 0.000000 0.000000 0.000000 5.646975 -6.837045 -8.278278 -45.720306 -11.167169 33.004885 47.552351 1.624274 -6.496544 -1.319988 3.271820 -13.703442 1.370857 0.084558 0.107912 0.000000 0.000000 0.000000 6.350244 -7.111896 -8.737114 -35.471939 -16.345100 7.249790 46.510778 4.929418 3.350774 -19.014203 -17.222324 -8.251352 3.028185 0.396277 -1.461489 0.000000 0.000000 0.000000 4.814303 -8.053905 -9.201412 9.119239 -1.818921 -5.650579 5.941427 -1.029882 -5.251805 1.075523 2.088979 0.008554 0.000000 0.000000 0.000000 6.692948 -1.031690 -5.352074 -2.441920 0.176256 -5.888547 -14.729692 -9.458957 13.947369 0.000000 0.000000 0.000000 6.482813 -1.008456 -5.725796 1.002356 -5.156232 -12.461118 -2.575201 -2.337219 0.391598 -12.799701 14.781158 -39.741917 1.007062 -40.675894 0.992405 0.000000 0.000000 0.000000 7.091070 -0.862391 -5.329872 1.323540 2.653595 9.120994 5.236014 3.317284 -2.522270 8.550253 6.873914 71.413398 2.630638 62.632056 -2.267890 0.000000 0.000000 0.000000 
9.874405 77.058670 -2.798973 0.000000 0.000000 0.000000 4.583243 -7.566284 -8.270884 -43.278500 -10.477738 33.374179 46.086766 2.236488 -6.393681 -1.244576 3.202749 -12.419310 1.337785 0.073189 0.159692 0.000000 0.000000 0.000000 5.306678 -7.860849 -8.685267 -33.807319 -15.547450 8.427946 44.320811 3.949647 3.066630 -17.205023 -17.030358 -7.931114 2.750103 0.326619 -1.505546 0.000000 0.000000 0.000000 3.626783 -9.240738 -9.060254 8.431814 -1.688469 -5.537278 5.481133 -1.141327 -5.238668 1.040569 2.388495 -0.006220 0.000000 0.000000 0.000000 5.932588 -1.064977 -5.346731 -1.601880 0.038589 -5.517389 -10.158053 -9.233590 14.666247 0.000000 0.000000 0.000000 5.908782 -1.088836 -5.702546 0.969056 -5.009283 -13.006203 -3.195333 -2.173353 -0.160551 -12.624252 12.178153 -41.055027 1.338323 -38.752574 1.134837 0.000000 0.000000 0.000000 6.528624 -0.908474 -5.404032 1.251412 2.754327 9.860140 4.998355 3.213582 -2.502099 7.312918 8.748784 69.947496 2.381576 62.298661 -2.038129 0.000000 0.000000 0.000000 
9.474130 78.191895 -3.023834 0.000000 0.000000 0.000000 3.441428 -8.398874 -8.271358 -40.610956 -9.456609 33.643719 44.567626 2.819841 -6.203345 -1.492034 3.247338 -10.838473 1.253374 0.058401 0.170977 0.000000 0.000000 0.000000 4.051589 -8.489074 -8.700819 -31.651025 -14.924185 9.682340 41.992553 2.921070 2.738489 -15.259054 -16.708820 -7.551894 2.327960 0.246546 -1.554523 0.000000 0.000000 0.000000 2.193402 -10.201458 -9.020804 7.661334 -1.581447 -5.352085 4.993372 -1.304456 -5.219634 0.999823 2.564550 0.019429 0.000000 0.000000 0.000000 5.146707 -1.142947 -5.337205 -0.781123 -0.129961 -5.020349 -5.444986 -8.987832 15.374838 0.000000 0.000000 0.000000 5.302299 -1.206273 -5.644544 0.917471 -5.052087 -13.316588 -3.441528 -2.011886 -0.613437 -13.505558 8.674323 -41.544691 1.621181 -36.688013 1.253610 0.000000 0.000000 0.000000 5.940135 -1.016127 -5.458356 1.192235 2.743834 10.543540 4.624453 3.248518 -2.390579 6.753601 10.385198 68.230858 2.190863 62.620964 -1.840404 0.000000 0.000000 0.000000 
